HIERARCHY
ROOT root
{
	OFFSET 0.000000 0.000000 0.000000
	CHANNELS 6 Xposition Yposition Zposition Zrotation Yrotation Xrotation
	JOINT lhip
	{
		OFFSET 0.058581 -0.082280 -0.017664
		CHANNELS 3 Zrotation Yrotation Xrotation
		JOINT lknee
		{
			OFFSET 0.043451 -0.386469 0.008037
			CHANNELS 3 Zrotation Yrotation Xrotation
			JOINT lankle
			{
				OFFSET -0.014790 -0.426874 -0.037428
				CHANNELS 3 Zrotation Yrotation Xrotation
				JOINT ltoe
				{
					OFFSET 0.041054 -0.060286 0.122042
					CHANNELS 3 Zrotation Yrotation Xrotation
					End Site
					{
						OFFSET 0.000000 0.000000 0.000000
					}
				}
			}
		}
	}
	JOINT rhip
	{
		OFFSET -0.060310 -0.090513 -0.013543
		CHANNELS 3 Zrotation Yrotation Xrotation
		JOINT rknee
		{
			OFFSET -0.043257 -0.383688 -0.004843
			CHANNELS 3 Zrotation Yrotation Xrotation
			JOINT rankle
			{
				OFFSET 0.019056 -0.420046 -0.034562
				CHANNELS 3 Zrotation Yrotation Xrotation
				JOINT rtoe
				{
					OFFSET -0.034840 -0.062106 0.130323
					CHANNELS 3 Zrotation Yrotation Xrotation
					End Site
					{
						OFFSET 0.000000 0.000000 0.000000
					}
				}
			}
		}
	}
	JOINT lowerback
	{
		OFFSET 0.004439 0.124404 -0.038385
		CHANNELS 3 Zrotation Yrotation Xrotation
		JOINT upperback
		{
			OFFSET 0.004488 0.137956 0.026820
			CHANNELS 3 Zrotation Yrotation Xrotation
			JOINT chest
			{
				OFFSET -0.002265 0.056032 0.002855
				CHANNELS 3 Zrotation Yrotation Xrotation
				JOINT lowerneck
				{
					OFFSET -0.013390 0.211636 -0.033468
					CHANNELS 3 Zrotation Yrotation Xrotation
					JOINT upperneck
					{
						OFFSET 0.010113 0.088937 0.050410
						CHANNELS 3 Zrotation Yrotation Xrotation
						End Site
						{
							OFFSET 0.000000 0.000000 0.000000
						}
					}
				}
				JOINT lclavicle
				{
					OFFSET 0.071702 0.114000 -0.018898
					CHANNELS 3 Zrotation Yrotation Xrotation
					JOINT lshoulder
					{
						OFFSET 0.122921 0.045205 -0.019046
						CHANNELS 3 Zrotation Yrotation Xrotation
						JOINT lelbow
						{
							OFFSET 0.255332 -0.015649 -0.022946
							CHANNELS 3 Zrotation Yrotation Xrotation
							JOINT lwrist
							{
								OFFSET 0.265709 0.012698 -0.007375
								CHANNELS 3 Zrotation Yrotation Xrotation
								End Site
								{
									OFFSET 0.000000 0.000000 0.000000
								}
							}
						}
					}
				}
				JOINT rclavicle
				{
					OFFSET -0.082954 0.112472 -0.023707
					CHANNELS 3 Zrotation Yrotation Xrotation
					JOINT rshoulder
					{
						OFFSET -0.113228 0.046853 -0.008472
						CHANNELS 3 Zrotation Yrotation Xrotation
						JOINT relbow
						{
							OFFSET -0.260127 -0.014369 -0.031269
							CHANNELS 3 Zrotation Yrotation Xrotation
							JOINT rwrist
							{
								OFFSET -0.269108 0.006794 -0.006027
								CHANNELS 3 Zrotation Yrotation Xrotation
								End Site
								{
									OFFSET 0.000000 0.000000 0.000000
								}
							}
						}
					}
				}
			}
		}
	}
}
MOTION
Frames: 17
Frame Time: 0.033333
-0.018342 0.336624 1.018951 171.862748 0.024391 91.548474 1.451905 4.214982 0.564635 -3.791253 3.077147 -2.199745 4.979825 13.393956 -13.631163 0.000000 -0.000000 0.000000 -6.053499 -2.533445 -5.904479 1.554049 4.469590 3.834734 9.308144 -1.729300 4.085165 0.000000 -0.000000 0.000000 -2.783463 0.424987 -1.566503 2.957295 -6.672629 10.688966 0.251323 1.204558 -8.310027 -1.727978 -11.450606 -0.949936 6.916962 -0.662750 2.190354 -22.502392 -17.780109 1.289886 -48.092570 -28.179296 22.838500 7.798403 -79.679022 5.123654 -1.534748 -15.094319 5.808224 14.422747 15.432069 0.681127 24.310759 24.552009 -1.512539 -19.377259 51.195047 -15.106077 4.132103 8.097297 8.470526 
-0.013841 0.338695 1.018711 172.150268 -0.020251 91.776986 1.692212 4.071037 0.681395 -3.836485 2.676087 -2.598873 4.928342 13.651128 -13.329672 0.000000 -0.000000 0.000000 -5.937522 -2.480179 -5.800891 1.712410 4.182779 3.714572 9.080290 -1.813573 3.882076 0.000000 -0.000000 0.000000 -2.875765 0.543862 -1.956059 3.054320 -6.228517 11.089715 0.159748 1.041693 -8.271458 -1.413023 -10.475495 -1.676264 5.968273 -0.442564 1.878592 -23.185281 -14.712623 1.660612 -47.676236 -23.728102 22.648048 1.274674 -82.219905 11.651381 -1.857971 -14.902402 4.805005 15.904832 12.961754 1.173190 26.725298 21.582643 0.628747 -20.107587 56.249520 -15.190371 3.958496 8.831940 6.218934 
-0.009070 0.341418 1.018532 172.748382 -0.130350 92.093963 1.839126 3.912985 0.681921 -3.791306 2.295182 -2.979987 4.870388 13.686870 -13.072041 0.000000 -0.000000 0.000000 -5.896810 -2.596653 -5.563242 1.844788 3.710207 3.440628 9.114551 -1.823461 3.638380 0.000000 -0.000000 0.000000 -2.938515 0.475996 -2.453813 3.131809 -5.985390 10.996505 -0.065814 1.065138 -7.763627 -1.434467 -9.247562 -1.958602 5.483407 0.021469 0.988823 -23.617558 -11.015924 1.867361 -47.290831 -19.839639 22.324096 -14.357985 -83.084831 27.209009 -2.466257 -15.680849 3.928682 17.347975 10.058273 1.872972 29.307582 18.988898 1.887027 -18.920155 60.314949 -13.275285 4.301791 9.593049 5.943062 
-0.002751 0.345305 1.018203 173.511814 -0.295371 92.250945 2.069802 4.044220 0.642890 -3.752356 1.796967 -2.792398 4.804235 13.275894 -12.958543 0.000000 -0.000000 0.000000 -5.891405 -2.528295 -5.045144 2.027281 2.983018 3.269638 9.131512 -1.936059 3.272993 0.000000 -0.000000 0.000000 -3.053660 0.546104 -3.068404 3.109231 -5.440298 11.369927 -0.158398 0.800110 -7.333907 -1.323323 -7.166255 -2.382960 4.271309 0.453028 -0.368011 -23.356021 -7.711146 2.335016 -47.851337 -13.796788 21.872204 -18.401050 -84.136147 32.416831 -4.655005 -15.707113 3.655384 18.536964 7.450409 2.625115 32.831234 14.932378 3.968088 -16.975025 63.444218 -10.107011 5.951734 10.165855 5.080837 
0.000747 0.347047 1.017823 174.414514 -0.256572 92.359486 2.347024 3.748937 0.323682 -3.672011 1.421428 -2.370654 4.880903 13.113908 -13.031529 0.000000 -0.000000 0.000000 -5.728019 -2.731379 -4.759196 2.189659 2.648210 3.185659 9.018580 -2.139646 2.987649 0.000000 -0.000000 0.000000 -2.869888 0.539827 -3.125284 3.128618 -5.356035 11.139324 -0.304475 0.644020 -6.915588 -1.235077 -6.065388 -2.976801 3.495479 0.741749 -0.833657 -23.147769 -5.607595 2.421959 -48.501062 -10.471619 21.748848 -18.498611 -84.021811 32.723499 -4.256770 -15.584576 3.079519 19.017223 5.889770 2.777504 35.345077 12.681822 5.406168 -15.400930 64.078508 -7.968397 5.909389 10.673443 3.939946 
0.006083 0.350721 1.017486 174.992734 -0.344825 92.184483 2.641091 4.043601 0.651635 -3.655937 0.799272 -2.217071 4.738088 12.905691 -13.077132 0.000000 -0.000000 0.000000 -5.581793 -2.694110 -4.016424 2.303908 2.634932 3.049426 9.033311 -2.422350 2.652622 0.000000 -0.000000 0.000000 -2.892043 0.701361 -3.236334 3.143782 -4.756247 11.036577 -0.506558 0.623930 -6.281975 -1.114654 -4.332610 -3.427682 2.754614 0.739939 -1.775890 -22.680753 -3.212595 2.576776 -48.951101 -7.033537 21.386178 -17.529099 -82.536682 31.818233 -3.532722 -15.614084 1.605861 19.934654 4.084208 3.281527 38.143581 9.806106 6.817310 -12.355259 63.936050 -3.879497 5.211494 10.475561 3.667250 
0.010542 0.353833 1.017037 176.246910 -0.472246 92.290923 2.916643 3.515241 0.898618 -3.740181 -0.044242 -2.792550 4.869529 13.101762 -12.522399 0.000000 -0.000000 0.000000 -5.489270 -2.865743 -3.415719 2.397992 2.134639 2.708355 8.910969 -2.812822 2.394909 0.000000 -0.000000 0.000000 -3.063765 0.779679 -3.666382 3.285205 -4.683574 11.175079 -0.497919 0.606853 -5.870074 -1.167573 -3.039985 -3.646538 1.916625 0.616516 -2.892910 -21.873372 -0.761168 2.672536 -50.544617 -4.062526 20.705781 -13.493059 -80.512063 28.656929 -6.531177 -15.053791 1.657092 20.269108 2.501012 3.784826 41.197580 7.404218 7.959826 -10.424667 62.777575 -0.721478 6.471342 10.422669 3.921298 
0.014825 0.356049 1.016757 177.050142 -0.532989 92.325496 3.167823 3.350280 0.894375 -3.681532 -0.400974 -2.734728 4.717635 12.826344 -12.510775 0.000000 -0.000000 0.000000 -5.303935 -2.799443 -3.047286 2.421862 1.573533 2.638009 8.886411 -2.995905 2.253556 0.000000 -0.000000 0.000000 -3.113527 0.948801 -3.847777 3.329669 -4.264186 11.544368 -0.515398 0.424923 -5.883386 -0.915438 -1.633189 -3.753496 1.052369 0.238146 -3.828259 -21.165983 1.239047 2.962260 -52.294576 -1.118896 19.955552 -5.218212 -78.668496 20.694951 -7.928980 -14.154261 3.443883 20.664110 1.437389 4.280467 44.343444 5.593438 9.150343 -9.596568 60.084858 1.401891 6.727203 10.844182 4.375572 
0.018641 0.358302 1.016376 178.163881 -0.689219 92.447324 3.309956 2.991406 0.740026 -3.658547 -0.948356 -2.597543 4.709638 12.521563 -12.429781 0.000000 -0.000000 0.000000 -5.285621 -3.083124 -2.584093 2.574259 1.122776 2.312257 8.676048 -3.282819 2.172316 0.000000 -0.000000 0.000000 -3.218519 1.127004 -4.247276 3.335208 -4.166469 11.844848 -0.632447 0.298064 -5.765525 -0.710827 -0.701808 -3.695446 0.530420 -0.031550 -4.796657 -20.368693 2.731105 3.295459 -54.123303 0.885622 19.292951 0.842665 -75.502569 14.948354 -8.463958 -13.399799 3.870118 20.997172 0.631921 4.641555 47.748618 4.197945 10.264367 -10.043236 56.590550 2.166144 6.977306 10.767753 4.074596 
0.022959 0.359862 1.015883 179.433509 -0.810135 92.532301 3.602632 2.554809 0.424686 -3.757359 -1.537415 -2.278841 4.657880 12.438231 -12.364822 0.000000 -0.000000 0.000000 -5.109568 -3.105115 -2.056796 2.634164 0.586507 1.922363 8.443076 -3.837932 1.941704 0.000000 -0.000000 0.000000 -3.263290 1.385614 -4.194139 3.372572 -3.845156 11.554692 -0.718530 0.261987 -5.581355 -0.573686 0.110126 -3.509228 -0.044374 -0.592170 -5.689997 -19.562761 4.396011 3.392416 -56.256700 1.893820 18.786450 4.645895 -69.723677 11.208331 -8.992652 -12.832502 4.026358 20.985800 -0.160072 4.622990 52.074376 2.999587 11.452585 -10.149462 51.214136 2.648822 5.625116 10.814625 2.772050 
0.026243 0.361908 1.015578 -179.952983 -1.074010 92.338800 3.679275 2.725379 0.803955 -3.882237 -2.026165 -2.431626 4.502795 12.170267 -12.349550 0.000000 -0.000000 0.000000 -5.204686 -3.157239 -1.392616 2.691956 0.382664 1.678939 8.264926 -4.026019 1.845963 0.000000 -0.000000 0.000000 -3.499859 1.684252 -4.425214 3.298122 -3.428813 12.122301 -0.848218 0.389063 -5.678954 -0.253381 0.649019 -3.265809 -0.242727 -1.241560 -6.289810 -19.017509 5.166743 3.282309 -57.571792 1.903427 18.724205 5.927563 -64.334667 10.132880 -9.263593 -11.853361 4.498560 20.985733 -0.270411 4.505461 55.493222 2.594143 12.348776 -10.575273 45.867808 1.665117 4.245467 10.899538 1.284995 
0.028825 0.362431 1.015178 -178.932331 -1.172770 92.379981 3.848167 2.480924 0.557705 -3.921849 -2.572911 -2.280651 4.383080 12.037514 -12.316637 0.000000 -0.000000 0.000000 -5.047217 -3.207075 -1.413204 2.687170 0.096224 2.030041 7.880725 -4.481452 1.427227 0.000000 -0.000000 0.000000 -3.454802 1.870031 -4.520757 3.206222 -3.245566 12.229069 -0.943676 0.508907 -5.677420 -0.058985 0.812925 -3.089414 -0.322374 -1.896974 -6.676338 -18.927384 5.207341 2.952043 -58.726763 1.547455 18.801201 6.678797 -57.824610 8.719099 -9.007419 -11.006627 4.411356 21.014064 0.146131 4.354155 58.546311 2.355797 13.091916 -11.178804 40.008495 -0.019217 2.083123 10.287110 -0.575376 
0.031198 0.362195 1.014885 -177.962096 -1.363590 92.474189 3.880079 2.283034 0.128494 -3.981931 -3.146958 -1.991181 4.255131 11.976463 -12.267922 0.000000 -0.000000 0.000000 -5.094180 -3.361234 -1.460983 2.800074 -0.248187 2.214707 7.518696 -4.771110 1.151188 0.000000 -0.000000 0.000000 -3.485936 2.114062 -4.644899 3.011086 -3.092441 12.592337 -0.893200 0.531462 -5.855690 0.155214 0.986164 -2.938585 -0.495353 -2.466835 -7.249305 -19.411285 4.348786 2.512165 -59.288900 0.948793 18.754835 7.503224 -50.534129 6.974228 -7.754246 -11.467884 5.369081 21.056231 1.416759 3.882674 61.196731 2.062047 13.827771 -11.477538 33.628036 -1.710530 -0.252373 10.424773 -2.250515 
0.033338 0.361137 1.014765 -177.038352 -1.402423 92.467915 4.050843 2.156059 -0.263412 -4.042614 -3.603512 -1.605683 4.245638 11.666336 -12.228967 0.000000 -0.000000 0.000000 -4.966310 -3.507468 -1.499041 2.851977 -0.586480 2.509408 7.225164 -5.014838 0.835513 0.000000 -0.000000 0.000000 -3.404148 2.391038 -4.306771 2.904711 -2.968619 12.766697 -0.762635 0.627571 -6.325803 0.377641 1.212608 -2.963873 -0.674877 -3.323335 -7.221061 -19.419009 2.833645 1.858498 -61.025940 0.348670 19.318411 9.067595 -41.971928 4.876875 -7.929126 -11.335836 4.442825 21.030410 3.300718 3.542917 63.227553 1.363475 15.274196 -12.373569 28.069121 -2.902365 -1.635334 10.420020 -4.213216 
0.034851 0.359346 1.014973 -175.991458 -1.535394 92.265241 4.024133 1.802533 -0.486273 -4.010325 -4.232159 -1.314174 4.061272 11.693587 -12.233536 0.000000 -0.000000 0.000000 -4.847899 -3.585899 -1.391195 2.705370 -0.771566 2.801132 6.929230 -5.611394 0.416561 0.000000 -0.000000 0.000000 -3.361430 2.546038 -3.442372 2.721504 -2.917771 12.311856 -0.517473 0.659844 -6.249992 0.259916 1.023396 -3.377256 -0.479275 -3.679062 -7.185169 -19.794247 1.017195 1.210283 -62.406788 -1.052137 19.396157 9.893897 -32.991774 3.049496 -6.445834 -11.333755 5.425691 21.034025 4.862335 3.350622 64.235042 1.315186 15.892124 -11.521601 23.790771 -2.128932 -2.342838 10.466583 -4.189917 
0.035692 0.357422 1.015171 -175.103086 -1.717913 92.112088 3.825840 1.471251 -0.773572 -3.922133 -4.793741 -0.979492 4.100895 11.725784 -12.185537 0.000000 -0.000000 0.000000 -4.932862 -3.420120 -1.249649 2.698214 -1.151495 2.820552 6.647049 -6.113148 0.254064 0.000000 -0.000000 0.000000 -3.285764 2.532416 -2.538035 2.505822 -2.875672 11.779037 -0.303689 0.734330 -6.141680 0.173937 0.818758 -3.945095 -0.207269 -3.827941 -7.244396 -20.035896 -0.739116 0.379806 -63.935229 -2.094853 19.394518 10.941905 -24.821918 1.320761 -7.663042 -11.247421 5.913121 21.056968 6.179782 3.040720 64.397878 0.999479 16.370931 -10.953854 21.957673 -0.273543 0.293724 10.253094 -2.230166 
0.037266 0.354955 1.015451 -174.594128 -1.624279 92.209078 4.010072 1.259913 -1.179974 -3.910607 -4.790212 -0.829664 3.980885 11.589141 -12.135911 0.000000 -0.000000 0.000000 -4.704152 -3.742635 -1.612214 2.736701 -1.316164 3.084226 6.588024 -6.042280 0.212155 0.000000 -0.000000 0.000000 -3.067514 2.721060 -1.878004 2.412192 -2.971687 11.349187 -0.137182 0.640291 -6.144939 0.242301 0.640800 -4.645223 0.066561 -3.803877 -7.321979 -20.208993 -2.187235 -0.099752 -65.083678 -2.599128 19.294469 12.070197 -19.722881 -0.241950 -7.399289 -10.307466 6.341993 21.044426 7.443250 2.908159 63.853770 0.786899 17.033500 -9.346898 21.873319 1.887535 0.374257 10.268872 -0.687309 
